# This file uses centimeters as units for non-parametric coordinates.

mtllib floor.mtl
g default
v -2.000000 0.000000 2.000000
v -2.000000 0.000000 -2.000000
v -2.000000 0.100000 2.000000
v -2.000000 0.100000 -2.000000
v 2.000000 0.000000 2.000000
v 2.000000 0.000000 -2.000000
v 2.000000 0.100000 2.000000
v 2.000000 0.100000 -2.000000
v -2.000000 0.000000 2.000000
v -2.000000 0.100000 2.000000
v 2.000000 0.000000 2.000000
v 2.000000 0.100000 2.000000
v -2.000000 0.000000 -2.000000
v -2.000000 0.100000 -2.000000
v 2.000000 0.000000 -2.000000
v 2.000000 0.100000 -2.000000
v -2.000000 0.000000 2.000000
v 2.000000 0.000000 2.000000
v -2.000000 0.000000 -2.000000
v 2.000000 0.000000 -2.000000
v -2.000000 0.100000 2.000000
v 2.000000 0.100000 2.000000
v -2.000000 0.100000 -2.000000
v 2.000000 0.100000 -2.000000
vt 0.014241 0.001992
vt 0.001837 0.498160
vt 0.001837 0.001992
vt 0.014241 0.498160
vt 0.019985 0.498160
vt 0.019985 0.001992
vt 0.032389 0.498160
vt 0.032389 0.001992
vt 0.129122 0.015660
vt 0.135566 0.022104
vt 0.129122 0.022104
vt 0.135566 0.015660
vt 0.156505 0.099987
vt 0.944789 0.099987
vt 0.156505 0.888271
vt 0.944789 0.888271
vt 0.039750 0.001992
vt 0.052155 0.498160
vt 0.039750 0.498160
vt 0.052155 0.001992
vt 0.071920 0.498160
vt 0.059516 0.498160
vt 0.071920 0.001992
vt 0.059516 0.001992
vn -1.000000 0.000000 0.000000
vn -1.000000 0.000000 0.000000
vn -1.000000 0.000000 0.000000
vn -1.000000 0.000000 0.000000
vn -1.000000 0.000000 0.000000
vn -1.000000 0.000000 0.000000
vn 1.000000 0.000000 0.000000
vn 1.000000 0.000000 0.000000
vn 1.000000 0.000000 0.000000
vn 1.000000 0.000000 0.000000
vn 1.000000 0.000000 0.000000
vn 1.000000 0.000000 0.000000
vn 0.000000 0.000000 1.000000
vn 0.000000 0.000000 1.000000
vn 0.000000 0.000000 1.000000
vn 0.000000 0.000000 1.000000
vn 0.000000 0.000000 1.000000
vn 0.000000 0.000000 1.000000
vn 0.000000 0.000000 -1.000000
vn 0.000000 0.000000 -1.000000
vn 0.000000 0.000000 -1.000000
vn 0.000000 0.000000 -1.000000
vn 0.000000 0.000000 -1.000000
vn 0.000000 0.000000 -1.000000
vn 0.000000 -1.000000 0.000000
vn 0.000000 -1.000000 0.000000
vn 0.000000 -1.000000 0.000000
vn 0.000000 -1.000000 0.000000
vn 0.000000 -1.000000 0.000000
vn 0.000000 -1.000000 0.000000
vn 0.000000 1.000000 0.000000
vn 0.000000 1.000000 0.000000
vn 0.000000 1.000000 0.000000
vn 0.000000 1.000000 0.000000
vn 0.000000 1.000000 0.000000
vn 0.000000 1.000000 0.000000
s off
g tempFloor:Mesh
usemtl tempFloor:palette
f 3/1/1 2/2/2 1/3/3
f 4/4/4 2/2/5 3/1/6
f 5/5/7 6/6/8 7/7/9
f 7/7/10 6/6/11 8/8/12
f 11/17/13 10/18/14 9/19/15
f 12/20/16 10/18/17 11/17/18
f 13/21/19 14/22/20 15/23/21
f 15/23/22 14/22/23 16/24/24
f 19/9/25 18/10/26 17/11/27
f 20/12/28 18/10/29 19/9/30
f 21/13/31 22/14/32 23/15/33
f 23/15/34 22/14/35 24/16/36
